<mxfile host="app.diagrams.net" agent="Mozilla/5.0 (Windows NT 10.0; Win64; x64) AppleWebKit/537.36 (KHTML, like Gecko) Chrome/135.0.0.0 Safari/537.36" version="26.2.14">
  <diagram name="Page-1" id="qVXG-KkNbce4CmgOP2jG">
    <mxGraphModel dx="1426" dy="785" grid="1" gridSize="10" guides="1" tooltips="1" connect="1" arrows="1" fold="1" page="1" pageScale="1" pageWidth="850" pageHeight="1100" math="0" shadow="0">
      <root>
        <mxCell id="0" />
        <mxCell id="1" parent="0" />
        <mxCell id="m5u-XjwBDrG3y_yZaRAL-2" value="Source Code on GitHub" style="dashed=0;outlineConnect=0;html=1;align=center;labelPosition=center;verticalLabelPosition=bottom;verticalAlign=top;shape=mxgraph.weblogos.github" vertex="1" parent="1">
          <mxGeometry x="373.25" y="50" width="75" height="75" as="geometry" />
        </mxCell>
        <mxCell id="m5u-XjwBDrG3y_yZaRAL-15" style="edgeStyle=orthogonalEdgeStyle;rounded=0;orthogonalLoop=1;jettySize=auto;html=1;exitX=1.021;exitY=0.689;exitDx=0;exitDy=0;exitPerimeter=0;" edge="1" parent="1" source="m5u-XjwBDrG3y_yZaRAL-4" target="m5u-XjwBDrG3y_yZaRAL-14">
          <mxGeometry relative="1" as="geometry" />
        </mxCell>
        <mxCell id="m5u-XjwBDrG3y_yZaRAL-4" value="&#xa;&lt;span style=&quot;color: rgb(0, 0, 0); font-family: Helvetica; font-size: 12px; font-style: normal; font-variant-ligatures: normal; font-variant-caps: normal; font-weight: 400; letter-spacing: normal; orphans: 2; text-align: center; text-indent: 0px; text-transform: none; widows: 2; word-spacing: 0px; -webkit-text-stroke-width: 0px; white-space: nowrap; background-color: rgb(236, 236, 236); text-decoration-thickness: initial; text-decoration-style: initial; text-decoration-color: initial; display: inline !important; float: none;&quot;&gt;Confluent Cloud for Kafka&lt;/span&gt;&#xa;&#xa;" style="points=[];aspect=fixed;html=1;align=center;shadow=0;dashed=0;fillColor=#FF6A00;strokeColor=none;shape=mxgraph.alibaba_cloud.kafka;" vertex="1" parent="1">
          <mxGeometry x="350" y="610" width="121.5" height="90" as="geometry" />
        </mxCell>
        <mxCell id="m5u-XjwBDrG3y_yZaRAL-6" value="User A" style="shape=umlActor;verticalLabelPosition=bottom;verticalAlign=top;html=1;outlineConnect=0;" vertex="1" parent="1">
          <mxGeometry x="90" y="170" width="30" height="60" as="geometry" />
        </mxCell>
        <mxCell id="m5u-XjwBDrG3y_yZaRAL-9" value="Producer Server" style="image;html=1;image=img/lib/clip_art/computers/Server_128x128.png" vertex="1" parent="1">
          <mxGeometry x="65" y="470" width="80" height="80" as="geometry" />
        </mxCell>
        <mxCell id="m5u-XjwBDrG3y_yZaRAL-10" style="edgeStyle=orthogonalEdgeStyle;rounded=0;orthogonalLoop=1;jettySize=auto;html=1;entryX=0.5;entryY=0;entryDx=0;entryDy=0;" edge="1" parent="1" source="m5u-XjwBDrG3y_yZaRAL-6" target="m5u-XjwBDrG3y_yZaRAL-9">
          <mxGeometry relative="1" as="geometry" />
        </mxCell>
        <mxCell id="m5u-XjwBDrG3y_yZaRAL-11" value="Use Graph QL to&lt;div&gt;&amp;nbsp;send message&lt;/div&gt;" style="edgeLabel;html=1;align=center;verticalAlign=middle;resizable=0;points=[];" vertex="1" connectable="0" parent="m5u-XjwBDrG3y_yZaRAL-10">
          <mxGeometry x="0.1254" y="-3" relative="1" as="geometry">
            <mxPoint as="offset" />
          </mxGeometry>
        </mxCell>
        <mxCell id="m5u-XjwBDrG3y_yZaRAL-12" style="edgeStyle=orthogonalEdgeStyle;rounded=0;orthogonalLoop=1;jettySize=auto;html=1;entryX=0.008;entryY=0.656;entryDx=0;entryDy=0;entryPerimeter=0;exitX=0.5;exitY=1;exitDx=0;exitDy=0;" edge="1" parent="1" source="m5u-XjwBDrG3y_yZaRAL-9" target="m5u-XjwBDrG3y_yZaRAL-4">
          <mxGeometry relative="1" as="geometry">
            <mxPoint x="150" y="540" as="sourcePoint" />
          </mxGeometry>
        </mxCell>
        <mxCell id="m5u-XjwBDrG3y_yZaRAL-13" value="Message will be sent to Kafka Topic" style="edgeLabel;html=1;align=center;verticalAlign=middle;resizable=0;points=[];" vertex="1" connectable="0" parent="m5u-XjwBDrG3y_yZaRAL-12">
          <mxGeometry x="-0.4142" relative="1" as="geometry">
            <mxPoint x="28" as="offset" />
          </mxGeometry>
        </mxCell>
        <mxCell id="m5u-XjwBDrG3y_yZaRAL-17" style="edgeStyle=orthogonalEdgeStyle;rounded=0;orthogonalLoop=1;jettySize=auto;html=1;" edge="1" parent="1" source="m5u-XjwBDrG3y_yZaRAL-14" target="m5u-XjwBDrG3y_yZaRAL-16">
          <mxGeometry relative="1" as="geometry" />
        </mxCell>
        <mxCell id="m5u-XjwBDrG3y_yZaRAL-18" value="Receive message via Signal R" style="edgeLabel;html=1;align=center;verticalAlign=middle;resizable=0;points=[];" vertex="1" connectable="0" parent="m5u-XjwBDrG3y_yZaRAL-17">
          <mxGeometry x="-0.1871" y="-3" relative="1" as="geometry">
            <mxPoint as="offset" />
          </mxGeometry>
        </mxCell>
        <mxCell id="m5u-XjwBDrG3y_yZaRAL-14" value="Consumer Server" style="image;html=1;image=img/lib/clip_art/computers/Server_128x128.png" vertex="1" parent="1">
          <mxGeometry x="655" y="450" width="80" height="80" as="geometry" />
        </mxCell>
        <mxCell id="m5u-XjwBDrG3y_yZaRAL-16" value="User B" style="shape=umlActor;verticalLabelPosition=bottom;verticalAlign=top;html=1;outlineConnect=0;" vertex="1" parent="1">
          <mxGeometry x="680" y="170" width="30" height="60" as="geometry" />
        </mxCell>
      </root>
    </mxGraphModel>
  </diagram>
</mxfile>
